<svg xmlns="http://www.w3.org/2000/svg" fill="none" viewBox="-0.5 -0.5 16 16" stroke-linecap="round" stroke-linejoin="round" stroke="#000000" id="Star--Streamline-Mynaui" height="16" width="16"><desc>Star Streamline Icon: https://streamlinehq.com</desc><path d="M8.03375 2.1875a0.611875 0.611875 0 0 0 -1.0675 0 16.861250000000002 16.861250000000002 0 0 0 -1.285625 2.97625c-0.08687500000000001 0.269375 -0.34437500000000004 0.45625 -0.6393749999999999 0.464375a18.37375 18.37375 0 0 0 -2.666875 0.265625c-0.48375 0.085 -0.6656249999999999 0.63625 -0.321875 0.9725a19.677500000000002 19.677500000000002 0 0 0 2.13125 1.8074999999999999c0.229375 0.16812500000000002 0.32375 0.45625 0.23625000000000002 0.72a16.754375 16.754375 0 0 0 -0.7124999999999999 3.0793749999999998c-0.0625 0.471875 0.4425 0.805 0.88125 0.5800000000000001a17.870625 17.870625 0 0 0 2.4875 -1.545 0.7174999999999999 0.7174999999999999 0 0 1 0.8475 0 17.815625 17.815625 0 0 0 2.4875 1.545c0.438125 0.22499999999999998 0.94375 -0.108125 0.88125 -0.5800000000000001a16.756249999999998 16.756249999999998 0 0 0 -0.7124999999999999 -3.08c-0.08750000000000001 -0.2625 0.00625 -0.55125 0.23625000000000002 -0.719375a19.685625 19.685625 0 0 0 2.13125 -1.8074999999999999c0.34375 -0.33625000000000005 0.1625 -0.8875 -0.321875 -0.9725a18.15375 18.15375 0 0 0 -2.666875 -0.265625 0.6856249999999999 0.6856249999999999 0 0 1 -0.6393749999999999 -0.464375 16.86375 16.86375 0 0 0 -1.285625 -2.975625" stroke-width="1"></path></svg>